<?xml version="1.0" encoding="utf-8"?>
<!-- Generator: Adobe Illustrator 18.0.0, SVG Export Plug-In . SVG Version: 6.00 Build 0)  -->
<!DOCTYPE svg PUBLIC "-//W3C//DTD SVG 1.1//EN" "http://www.w3.org/Graphics/SVG/1.1/DTD/svg11.dtd">
<svg version="1.1" id="Layer_1" xmlns="http://www.w3.org/2000/svg" xmlns:xlink="http://www.w3.org/1999/xlink" x="0px" y="0px"
	 viewBox="0 0 52 52" enable-background="new 0 0 52 52" xml:space="preserve">
<path fill="#ffffff" fill-rule="evenodd" clip-rule="evenodd" d="M42.7,42.6c-9.2,9.2-24.2,9.2-33.5,0C0,33.4,0,18.5,9.2,9.2
	C18.4,0,33.4,0,42.7,9.2C51.9,18.5,51.9,33.4,42.7,42.6z M44.5,7.6C34.3-2.5,17.8-2.5,7.6,7.6c-10.2,10.1-10.1,26.6,0,36.8
	c10.2,10.2,26.7,10.2,36.7,0C54.5,34.2,54.5,17.7,44.5,7.6z M36.8,13.7L26,24.4l-10-10L14.5,16l10,10L13.8,36.7l1.5,1.5L26,27.5
	l10.7,10.7l1.5-1.5L27.5,26l10.7-10.7L36.8,13.7z"/>
</svg>
